<svg xmlns="http://www.w3.org/2000/svg" width="320" height="320" version="1.0" viewBox="0 0 240 240">
  <path d="M197 4c-4 1-12 7-12 9s40 42 42 42l8-9 1-7c0-6-2-9-17-23L205 4h-8zM176 21l-2 3 21 20c11 12 21 21 22 21l3-2c1-2 1-2-19-23l-22-21-3 2zM166 32l-2 2 20 21 22 21-43 42-42 43-21-21c-17-17-21-21-22-20l-3 4-1 3H55c-15 0-18 0-19 2-3 2-3 5-1 8s2 3 18 3l16 1-2 7-2 5H51c-13 0-13 0-16 3s-3 5 0 9c3 2 4 2 14 2h11l-2 7-3 6h-9c-9 1-9 1-11 3-2 3-2 3-1 6 1 4 2 4 19 4h18l12-2 29-5c7-2 9-3 18-11l10-8h17c16 0 18 0 20-2 4-3 4-7 1-10-2-1-4-2-11-2h-9l7-6 10-7 4-4 15-12 13-11V94c0-17 0-20 2-21 1-2 0-3-20-23l-21-21-2 3z"/>
  <path d="M36 49c-3 2-3 5-1 8l2 2 50 1h51l6-6 6-7H94c-49 0-57 0-58 2zM36 76l-3 4 3 5 2 2h73l6-7 7-7H38l-3 3zM35 103l-2 3 3 6 25 1h24l6-7 6-6H37l-2 3z"/>
</svg>
